<svg version="1.2" xmlns="http://www.w3.org/2000/svg" viewBox="0 0 1000 1009" width="1000" height="1009">
	<title>path</title>
	<style>
		.s0 { fill: #ffffff } 
	</style>
	<path id="path" fill-rule="evenodd" class="s0" d="m318.1 799.7c-23.2 2.9-26.2 5.5-36.3 32.3-7.8 20.7-27.9 81.7-55.5 171.9h-10.4c-18.5-51.7-41.7-114.1-58.8-160.9h-0.7c-18.8 56.9-37.7 108.9-54.8 160.9h-10.4c-17.8-58.2-36.7-115-55.1-172.5-8.4-26.5-13.5-29.1-34-31.7v-9.1h81.7v9.1c-24.5 2.9-25.2 5.5-20.2 22 13.1 43.6 26.2 87.2 41 133.1h0.7c17.8-54.9 37.3-108.3 54.5-160.9h9.7c18.8 53 38.3 105.3 58.8 160.9h0.7c14.1-43 32.6-106.3 38-129.3 4.7-19.3 3.3-22.9-23.2-25.8v-9.1h74.3zm206 150c-2 10.6-8.7 41-11.7 51h-162v-9c30.6-2.3 33.2-4.9 33.2-31.1v-128.5c0-29.1-2.6-30.1-28.9-32.4v-9h150c0 8.1 1.6 30 2.6 46.5l-9.7 1.6c-3-13.5-6.4-20.6-10.8-27.7-4.7-6.8-13.7-9.1-37.9-9.1h-25.6c-10.4 0-11.1 0.7-11.1 10.3v73.4h31.6c30.3 0 31.9-2.6 36.3-24.2h9.8v62h-9.8c-4.4-23.3-6.7-25.2-35.9-25.2h-32v61.1c0 15.1 2 21.9 8.1 26.1 6.4 3.9 18.1 4.2 34.9 4.2 25.6 0 35-2.6 42.4-11 5.7-6.4 12.1-17.4 16.5-30.3zm235.6 53.6c-4 0-7.7 0-11.7-0.3-25.3-1.3-39.4-8.4-54.5-29.4-11.8-15.9-23.9-35.9-33.9-51.7-5.8-9.1-11.5-12.9-29-12.9h-10.7v51.3c0 27.5 3 29.4 29.9 31.4v9h-88.4v-9c27.6-2 30.6-3.9 30.6-31.4v-129.9c0-27.4-2.7-28.4-28.9-30.6v-9.1h83.3c24.6 0 41.1 2.9 53.8 11 13.5 8.4 22.2 22.9 22.2 42.3 0 27.8-17.8 44.9-42.7 55.3 5.7 10.6 19.9 32.3 29.9 46.8 12.1 16.8 19.2 25.2 27.3 33.6 9 9.7 16.8 13.3 24.2 15.2zm-123.7-105c17.1 0 28.2-2.6 36.6-9 13.1-9.7 18.5-22.7 18.5-40.1 0-34.9-23.9-47.8-49.4-47.8-9.8 0-15.5 1.3-18.2 3.2-2.3 1.6-3.7 5.5-3.7 14.2v79.5zm311.7 102.4c-25.9-28.1-53.2-59.8-83.4-94-7.7-8.7-12.4-10-18.2-9v61.3c0 28.5 3.4 30.7 31 32.7v9h-87.4v-9c25.5-2 28.5-4.2 28.5-32.7v-126.3c0-29.4-3-31-29.5-32.9v-9.1h86.7v9.1c-25.9 1.9-29.3 4.2-29.3 32.9v56.6c7.4-2 14.2-6.5 23.6-14.9 18.5-17.1 41.3-39.4 56.4-57.2 9.8-11.6 9.8-14.9-5.7-16.5l-7.4-0.9v-9.1h80.7v9.1c-25.5 2.2-33.3 5.4-54.8 24.2-12.8 11.3-36.6 34.2-59.5 56.5 25.6 30.4 62.2 70.5 79 87.9 17.8 18.4 24.5 21.3 41 23.3v9z"/>
	<path id="path" fill-rule="evenodd" class="s0" d="m227.7 506c-22.9 2.6-27.3 5.5-40 34.6-9.1 21-44.7 103-70 169.6h-10.4c-22.5-59.1-50.1-128.6-69.6-175.5-9.7-24.2-15.1-26.8-34.9-28.4v-9.4h82.3v9.1c-23.8 2.6-25.2 4.8-19.8 19.1 8.7 22.9 33.3 85.2 55.8 140.8h0.7c16.8-40.4 42.3-103.4 53.1-135.7 6.4-18.4 4.4-21-22.9-24.2v-9.1h75.7zm238.7 150c-2 10.6-8.7 41-11.7 51h-162v-9c30.6-2.3 33.2-4.9 33.2-31.1v-128.5c0-29.1-2.6-30.1-28.9-32.4v-9h149.9c0 8.1 1.7 30 2.7 46.5l-9.7 1.6c-3-13.5-6.4-20.6-10.8-27.7-4.7-6.8-13.7-9.1-37.9-9.1h-25.6c-10.4 0-11.1 0.7-11.1 10.3v73.4h31.6c30.3 0 31.9-2.6 36.3-24.2h9.8v62h-9.8c-4.4-23.3-6.7-25.2-36-25.2h-31.9v61c0 15.2 2 22 8.1 26.2 6.4 3.9 18.1 4.2 34.9 4.2 25.6 0 35-2.6 42.4-11 5.7-6.4 12.1-17.4 16.5-30.3zm233.7 0.3c-2 10-9.1 40.7-12.1 50.7h-152.3v-9c28.3-2 31-4.2 31-31.7v-129.2c0-27.5-2.4-29.1-29.6-31v-9.1h87.7v9.1c-26.5 1.9-29.6 3.5-29.6 31v127.6c0 17.4 1.7 23.9 7.8 27.1 6.7 3.6 18.1 4.2 32.2 4.2 18.5 0 30-1.6 37.7-10 5.7-6.5 12.1-16.8 17.1-31.7zm162.9-159.2c42.6 0 74.2 8.4 95.1 27.4 16.5 15.5 28.2 39.1 28.2 69.5 0 38.8-15.4 67.5-41.3 86.3-25.2 18.7-58.5 26.8-99.9 26.8h-79.6v-8.8c28.9-1.9 31.6-3.8 31.6-31.3v-129.5c0-27.8-2.7-29.1-28.6-31.1v-9.3zm-37 167.6c0 24.6 11.1 30.7 35.7 30.7 62.8 0 91.7-45.2 91.7-96.9 0-33.3-12.7-62-39.6-77.2-15.2-9.4-34.7-13.2-57.2-13.2-14.1 0-22.8 1.6-26.2 3.8-3.4 2.3-4.4 5.8-4.4 18.4z"/>
	<path id="path" fill-rule="evenodd" class="s0" d="m233 305.7c0 69.7-50.7 112.4-112.2 112.4-60.9 0-109.3-45.6-109.3-107.6 0-58.2 42.4-112.1 113-112.1 57.1 0 108.5 42.6 108.5 107.3zm-187.2-4.2c0 60.7 34.6 105 82 105 37.3 0 70.9-30.1 70.9-92.1 0-68.2-36.9-104.4-81-104.4-37.6 0-71.9 31-71.9 91.5zm340.3-98.3c23.9 0 43 3.9 56.5 13.6 13.1 9.4 21.8 24.2 21.8 45.6 0 41.6-32.9 62-65.5 66.2-5.1 0.3-11.4 0.3-15.1 0l-24.9-6.1v50.7c0 27.4 3 29.1 33.3 31v9h-91.1v-9c26.9-1.9 29.6-4.5 29.6-31.3v-129.3c0-28.4-2.7-29.7-27.6-31.3v-9.1zm-27.2 108.6c4.3 1.6 13.4 3.9 24.5 3.9 21.8 0 48.7-11.3 48.7-52.4 0-34.9-23.2-49.7-50.7-49.7-9.4 0-16.5 1.6-18.8 3.9-2.7 2.2-3.7 6.1-3.7 15.1zm342.6 50.4c-2 10.7-8.7 41.1-11.7 51.1h-162.1v-9.1c30.6-2.2 33.3-4.8 33.3-31v-128.6c0-29-2.7-30-28.9-32.3v-9h149.9c0 8.1 1.7 30 2.7 46.5l-9.7 1.6c-3.1-13.5-6.4-20.7-10.8-27.8-4.7-6.7-13.8-9-38-9h-25.5c-10.4 0-11.1 0.6-11.1 10.3v73.4h31.6c30.2 0 31.9-2.6 36.3-24.3h9.7v62.1h-9.7c-4.4-23.3-6.7-25.2-36-25.2h-31.9v61c0 15.2 2 22 8.1 26.2 6.3 3.9 18.1 4.2 34.9 4.2 25.6 0 35-2.6 42.4-11 5.7-6.4 12.1-17.4 16.4-30.4zm291.9-149.9c-18.8 1-26.9 5.2-28.2 19.4-1.3 9.7-2 24.3-2 54.3v130.2h-10.4l-143.2-169.3h-0.7v81.1c0 29.7 1 45.2 2 54.6 1.7 16.5 9.4 20.4 32.3 21.6v9.1h-79.7v-9.1c19.5-0.9 27.9-5.1 29.6-21 1-10 2-25.5 2-55.2v-71.1c0-23.6-0.7-24.9-6.7-32.6-6.7-8.1-14.1-10.7-29.9-12v-9h49.7l140.2 162.2h1v-79.5c0-29.7-1.3-44.6-2.4-53.6-1.6-14.6-9.7-18.8-32.9-20.1v-9h79.3z"/>
	<path id="path" fill-rule="evenodd" class="s0" d="m66.4 31.8c-3.3-11.3-8.1-23.5-24-23.5-14.1 0-20.4 9.9-20.4 19.4 0 12.9 8.8 18.9 23.3 26.1 14.3 7 31.7 15.3 31.7 35.1 0 18.5-16.3 33.3-40.7 33.3-7.5 0-13.4-1.4-17.9-2.7-4.6-1.6-7.4-2.8-9-3.7-1.5-3.7-3.9-18.8-5-27.3l5.4-1.2c2.9 10.7 11.1 28.5 30 28.5 13.8 0 22-8.2 22-21.1 0-13.1-10.1-19.2-23.8-26.3-11.8-6-30.3-14.8-30.3-34.7 0-16.9 14.1-31.3 37.8-31.3 8.4 0 16.2 1.9 23.1 4 0.7 6.3 1.7 13.2 3.1 24.3zm123.9 0.5c-2-8.4-3.7-12.8-5.9-15.7-2.9-4.2-6-5.4-19.8-5.4h-13v86.7c0 13.9 1.5 15.7 18.9 16.7v5h-52.6v-5c16.7-1 18.2-2.8 18.2-16.7v-86.7h-11.4c-15.2 0-18.9 1.4-21.3 5.4-2.2 3-3.7 8-5.9 15.7h-5.3c1-10.5 1.9-22 2.2-31.7h3.7c2.6 4.1 4.9 4.4 10.1 4.4h72.4c4.9 0 6.4-1 9.3-4.4h3.9c0 8.1 0.9 21 1.8 31.2zm22.2 87.2v-4.9c15-1 16.5-2.1 16.5-17.1v-70.5c0-15-1.5-16-16.5-17.1v-4.9h48.6v4.9c-15.1 1.1-16.5 2.1-16.5 17.1v70.5c0 15.2 1.4 16.1 16.5 17.1v4.9zm176.4-29c-2.5 8.1-7.1 21.1-10.4 26.9-5.1 1.3-20.5 4.8-33.7 4.8-45.7 0-65.7-30.3-65.7-58.3 0-37.1 29.7-61.5 70.6-61.5 14.9 0 27.3 3.8 32.5 4.7 1.4 10 2.5 17.1 3.6 26.6l-5.5 1.2c-4.7-18.6-15.7-26.2-35.5-26.2-30.7 0-47 24.8-47 51.6 0 33 20.2 55.6 48.1 55.6 18.7 0 28.6-9.7 37.7-27.4zm143-80.5c-15 1.2-16.5 2.1-16.5 16.7v71.2c0 14.8 1.5 15.7 16.3 16.8v4.9h-49.1v-4.9c15.6-1.1 17.2-2 17.2-16.8v-35.2h-62.5v35.2c0 14.7 1.5 15.7 16.5 16.8v4.9h-48.2v-4.9c14.7-1.1 16.1-2 16.1-16.8v-71.2c0-14.8-1.4-15.5-16.5-16.7v-4.9h47.5v4.9c-13.9 1.2-15.4 2.1-15.4 16.7v28.6h62.5v-28.6c0-14.6-1.4-15.5-15.7-16.7v-4.9h47.8zm115.3 22.4c-2-8.5-3.7-12.9-5.9-15.7-2.9-4.3-6-5.5-19.8-5.5h-13v86.7c0 13.9 1.5 15.7 18.9 16.8v4.9h-52.6v-4.9c16.7-1.1 18.1-2.9 18.1-16.8v-86.7h-11.3c-15.3 0-18.9 1.4-21.3 5.5-2.2 3-3.7 7.9-5.9 15.7h-5.3c0.9-10.6 1.8-22.1 2.2-31.7h3.7c2.5 4 4.9 4.4 10.1 4.4h72.4c4.9 0 6.4-1.1 9.3-4.4h3.9c0 8 0.9 20.9 1.8 31.1zm22.2 87.3v-5c15-1 16.5-2.1 16.5-17.1v-70.5c0-14.9-1.5-16-16.5-17.1v-4.9h48.5v4.9c-15 1.1-16.5 2.2-16.5 17.1v70.5c0 15.2 1.5 16.1 16.5 17.1v5zm192.7-109.7c-10.3 0.6-14.7 2.9-15.4 10.6-0.8 5.3-1.1 13.2-1.1 29.6v71h-5.7l-78.1-92.3h-0.4v44.2c0 16.3 0.6 24.7 1.1 29.8 0.9 9 5.1 11.1 17.6 11.8v5h-43.4v-5c10.6-0.5 15.2-2.8 16.1-11.4 0.6-5.5 1.1-13.9 1.1-30.2v-38.7c0-12.9-0.4-13.6-3.7-17.8-3.6-4.4-7.7-5.9-16.3-6.6v-4.9h27.1l76.5 88.5h0.6v-43.4c0-16.2-0.8-24.3-1.3-29.2-0.9-8-5.3-10.3-18-11v-4.9h43.3zm135.2 61.4c-11 1.5-11.7 2.4-11.7 12.8v15c0 6.2 0.2 11.8 1.3 16.6-11.4 2.6-26.4 6.5-41.1 6.5-40.3 0-67.3-24.1-67.3-59 0-40.9 34.1-60.8 70.1-60.8 15.2 0 29.3 3.8 35.2 5.1 0.5 6.1 1.4 15.8 2.9 27.5l-5.1 1c-4.4-21.5-18.4-27.3-35.8-27.3-28 0-48.6 19.7-48.6 52.4 0 25.3 15.6 54.9 51 54.9 6.2 0 11.9-1.2 16-3.1 3.6-2 5.8-4.1 5.8-11.5v-15c0-12.7-1.3-13.7-19.2-15.1v-4.8h46.5z"/>
</svg>